<?xml version="1.0" standalone="no"?>
<!DOCTYPE svg PUBLIC "-//W3C//DTD SVG 20010904//EN"
 "http://www.w3.org/TR/2001/REC-SVG-20010904/DTD/svg10.dtd">
<svg version="1.0" xmlns="http://www.w3.org/2000/svg"
 width="177.000000pt" height="180.000000pt" viewBox="0 0 177.000000 180.000000"
 preserveAspectRatio="xMidYMid meet">

<g transform="translate(0.000000,180.000000) scale(0.100000,-0.100000)"
fill="#000000" stroke="none">
<path d="M604 1758 c-34 -16 -44 -51 -44 -149 0 -87 1 -92 29 -120 22 -21 39
-29 66 -29 l36 0 -3 -97 -3 -98 -59 -3 -59 -3 -79 78 -78 78 0 98 c0 157 -25
182 -174 176 -73 -4 -88 -7 -110 -28 -25 -23 -26 -30 -26 -128 0 -97 2 -106
25 -128 23 -23 31 -25 132 -25 l108 0 78 -78 77 -77 0 -63 0 -62 -100 0 -100
0 0 35 c0 25 -8 44 -25 60 -22 23 -31 25 -128 25 -98 0 -105 -1 -128 -26 -20
-21 -24 -38 -28 -101 -7 -154 23 -187 170 -181 76 3 91 6 113 27 19 18 26 35
26 63 l0 38 100 0 100 0 0 -63 0 -62 -78 -78 -77 -77 -98 0 c-153 0 -166 -13
-167 -158 0 -96 2 -105 25 -127 22 -23 31 -25 124 -25 91 0 102 2 128 24 27
24 28 28 31 138 l3 113 72 73 71 72 69 0 68 0 -3 -97 -3 -98 -43 -6 c-67 -9
-76 -24 -80 -138 -4 -113 4 -136 53 -157 46 -19 168 -18 205 1 43 22 50 43 50
148 0 114 -13 137 -81 146 l-44 6 -1 79 c-2 117 -3 116 69 116 l62 0 72 -72
73 -72 0 -107 c0 -101 2 -109 26 -138 26 -31 26 -31 129 -31 88 0 106 3 129
21 25 20 26 24 26 130 0 103 -1 111 -25 134 -23 23 -31 25 -132 25 l-108 0
-78 78 -77 77 0 63 0 62 100 0 100 0 0 -34 c0 -22 9 -45 24 -63 21 -25 31 -28
100 -31 162 -9 189 15 184 165 -3 81 -6 94 -27 117 -23 25 -30 26 -128 26 -97
0 -106 -2 -128 -25 -17 -16 -25 -35 -25 -60 l0 -35 -100 0 -100 0 0 63 0 62
78 78 77 77 108 0 c101 0 109 2 132 25 23 22 25 31 25 128 0 98 -1 105 -26
128 -22 21 -37 24 -113 27 -147 6 -171 -19 -170 -182 l1 -88 -78 -80 -79 -79
-60 3 -60 3 -3 98 -3 97 36 0 c27 0 44 8 66 29 28 28 29 33 29 121 0 91 -9
124 -39 147 -20 15 -197 16 -227 1z m194 -46 c9 -6 12 -33 10 -98 l-3 -89 -90
0 -90 0 -3 89 c-2 65 1 92 10 98 7 4 45 8 83 8 39 0 76 -4 83 -8z m-450 -184
l3 -98 -89 0 c-55 0 -92 4 -100 12 -13 13 -17 143 -6 173 5 13 21 15 98 13
l91 -3 3 -97z m926 86 c11 -29 6 -160 -6 -172 -8 -8 -45 -12 -100 -12 l-88 0
0 93 c0 52 3 97 7 100 3 4 46 7 94 7 70 0 88 -3 93 -16z m-418 -450 c-3 -26
-6 -89 -6 -140 l0 -94 -140 0 -141 0 2 133 c0 72 3 135 6 140 2 4 68 7 145 7
l141 0 -7 -46z m-598 -6 c14 -14 16 -155 4 -176 -6 -9 -33 -12 -98 -10 l-89 3
-3 89 c-2 65 1 92 10 98 21 12 162 10 176 -4z m1090 4 c9 -6 12 -33 10 -98
l-3 -89 -83 -3 c-53 -2 -89 1 -98 9 -17 14 -20 140 -4 170 9 16 22 19 88 19
42 0 83 -4 90 -8z m-998 -551 c0 -51 -4 -93 -10 -96 -16 -10 -153 -12 -172 -3
-15 7 -18 22 -18 83 0 108 -3 105 106 105 l94 0 0 -89z m918 77 c14 -14 16
-146 4 -166 -6 -9 -33 -12 -98 -10 l-89 3 -3 93 -3 92 89 0 c55 0 92 -4 100
-12z m-463 -168 l0 -95 -90 0 -90 0 -3 84 c-2 46 0 91 2 98 4 11 26 13 93 11
l88 -3 0 -95z"/>
</g>
</svg>
